# xmcd
#
# Track frame offsets:
#	183
#	15130
#	27108
#	39695
#	52175
#	62153
#	71393
#	83925
#	94873
#	107325
#	118695
#	130833
#
# Disc length: 1864 seconds
#
# Revision: 2
# Processed by: cddbd v1.4PL0 Copyright (c) Steve Scherf et al.
# Submitted via: MusicManager 7.0.3.0 
#
DISCID=9607460c
DTITLE=Knight, Gladys  - Legends
DYEAR=1900
DGENRE=
TTITLE0=guess who
TTITLE1=darlin'
TTITLE2=letter full of tears
TTITLE3=you broke your promise
TTITLE4=operator
TTITLE5=every beat of my heart
TTITLE6=come see about me
TTITLE7=one more lonely night
TTITLE8=realy didn't mean it
TTITLE9=how do you say goodbye
TTITLE10=jungle love
TTITLE11=room in your heart
EXTD=
EXTT0=
EXTT1=
EXTT2=
EXTT3=
EXTT4=
EXTT5=
EXTT6=
EXTT7=
EXTT8=
EXTT9=
EXTT10=
EXTT11=
PLAYORDER=
